<svg width="25" height="24" viewBox="0 0 25 24" fill="none" xmlns="http://www.w3.org/2000/svg">
<path fill-rule="evenodd" clip-rule="evenodd" d="M12.6181 0C19.2455 0.0101591 24.6098 5.39102 24.5996 12.0185C24.5895 18.6459 19.2086 24.0101 12.5811 24C5.96096 23.9897 0.599609 18.6201 0.599609 11.9999C0.599609 5.37257 5.97219 0 12.5996 0C12.6057 0 12.6119 0 12.6181 0Z" fill="#EB2232"/>
<path fill-rule="evenodd" clip-rule="evenodd" d="M13.5958 14.0568V11.7967L16.4634 11.8151C17.8443 11.8244 18.5166 12.9284 18.5166 14.0818C18.5166 17.2711 13.604 17.9549 13.599 14.0568M13.5992 8.06201C18.8885 5.28589 19.3555 11.3824 16.1614 11.0929H13.5867L13.5992 8.06201ZM18.2081 11.3716C22 9.91926 18.8308 4.26584 12.6243 7.76325C11.9872 7.24367 11.2283 6.89505 10.4192 6.75028C8.88585 6.43896 6.82983 6.71004 5.67637 7.7845L6.23378 8.32882C7.45301 7.27855 9.16884 7.02578 10.6391 7.67997C11.1273 7.91176 11.4843 8.35195 11.6102 8.87755L11.638 14.0722C11.4105 17.6807 6.763 17.402 6.76406 14.0722V11.7931H10.4193V11.1051H4.83984V13.3482C4.85401 17.612 10.0405 18.3294 12.6092 16.2544C13.6597 17.0333 14.9452 17.4289 16.2519 17.3752C20.8565 17.3442 21.8041 12.3782 18.1963 11.3684L18.2081 11.3716Z" fill="white"/>
</svg>
