<svg width="8" height="13" viewBox="0 0 8 13" fill="none" xmlns="http://www.w3.org/2000/svg">
<path fill-rule="evenodd" clip-rule="evenodd" d="M0.368485 7.39756C0.132694 7.16148 0.000251293 6.84145 0.000251293 6.50778C0.000251293 6.17411 0.132694 5.85409 0.368485 5.618L5.1162 0.868609C5.35241 0.632514 5.67273 0.499921 6.0067 0.5C6.34066 0.500079 6.66092 0.632822 6.89702 0.869028C7.13311 1.10523 7.2657 1.42555 7.26562 1.75952C7.26555 2.09349 7.1328 2.41375 6.8966 2.64984L3.03866 6.50778L6.8966 10.3657C7.12607 10.6031 7.25313 10.9211 7.25042 11.2512C7.24771 11.5814 7.11544 11.8972 6.8821 12.1308C6.64875 12.3644 6.33301 12.4969 6.00288 12.4999C5.67274 12.503 5.35462 12.3762 5.11704 12.147L0.367645 7.3984L0.368485 7.39756Z" fill="#656565"/>
</svg>
