<svg width="14" height="9" viewBox="0 0 14 9" fill="none" xmlns="http://www.w3.org/2000/svg">
<path fill-rule="evenodd" clip-rule="evenodd" d="M8.38211 8.09453C8.12215 8.35417 7.76976 8.5 7.40236 8.5C7.03495 8.5 6.68257 8.35417 6.42261 8.09453L1.19299 2.86676C0.933022 2.60667 0.787023 2.25396 0.787109 1.88622C0.787196 1.51849 0.933361 1.16585 1.19345 0.90588C1.45354 0.645913 1.80625 0.499913 2.17399 0.5C2.54172 0.500087 2.89436 0.646252 3.15433 0.906342L7.40236 5.15437L11.6504 0.906342C11.9118 0.653666 12.2619 0.513755 12.6254 0.516741C12.9889 0.519727 13.3368 0.665373 13.5939 0.922308C13.8511 1.17924 13.9971 1.52691 14.0004 1.89043C14.0037 2.25395 13.8642 2.60423 13.6117 2.86583L8.38303 8.09546L8.38211 8.09453Z" fill="#656565"/>
</svg>
