<svg width="36" height="22" viewBox="0 0 36 22" fill="none" xmlns="http://www.w3.org/2000/svg">
<path d="M18.0288 7.88141C17.9701 7.75477 17.9243 7.65285 17.8756 7.55181C17.8501 7.49877 17.8804 7.45837 17.8999 7.41637C18.0882 7.00525 18.277 6.59493 18.4668 6.18501C19.132 4.73941 19.7971 3.29381 20.4619 1.84805C20.4737 1.82269 20.4869 1.79781 20.4985 1.77189C20.5094 1.74133 20.5397 1.72229 20.5718 1.72613C20.6594 1.72613 20.7465 1.72613 20.852 1.72613L18.0288 7.88141ZM16.9915 7.60901C16.7717 8.08877 16.552 8.56797 16.3322 9.04693C15.9413 9.90005 15.55 10.7539 15.1588 11.6085C15.1374 11.655 15.1155 11.7008 15.0872 11.7613C15.0792 11.7529 15.072 11.7439 15.0653 11.7344C15.0144 11.6217 14.9335 11.5121 14.9217 11.3954C14.9108 11.2856 15.0012 11.1825 15.0492 11.0778C15.6289 9.80829 16.2096 8.53989 16.7912 7.27229C16.8061 7.22573 16.8313 7.18301 16.8645 7.14701C16.9195 7.26717 16.9743 7.38181 17.0242 7.49717C17.0417 7.53973 17.011 7.57373 16.9931 7.60901H16.9915ZM16.7251 4.88093C16.8777 4.54693 17.0315 4.21309 17.186 3.87925C17.5005 3.19685 17.8166 2.51525 18.1272 1.83117C18.1638 1.74837 18.2092 1.71541 18.2976 1.72565C18.3685 1.72925 18.4396 1.72925 18.5106 1.72565L16.8574 5.32957C16.7973 5.19965 16.75 5.09533 16.7014 4.99189C16.6812 4.94877 16.7109 4.91573 16.7266 4.88085H16.7251V4.88093ZM20.1241 12.7695C20.1396 12.7415 20.1519 12.7117 20.1656 12.6827L25.0841 1.99293C25.1244 1.90573 25.1651 1.81893 25.2045 1.73133C25.2184 1.70141 25.2324 1.67509 25.2727 1.67549C25.3632 1.67549 25.4541 1.67549 25.5573 1.67549C25.5346 1.73045 25.5207 1.77109 25.5016 1.81013C23.7479 5.63341 21.9944 9.45669 20.2409 13.2798C20.1711 13.4322 20.0989 13.5841 20.0315 13.7377C19.9721 13.8731 19.9809 14.0051 20.0792 14.12C20.1664 14.2297 20.3094 14.2783 20.4454 14.2445C20.5919 14.2149 20.6652 14.1135 20.7222 13.9881C22.4723 10.1797 24.2217 6.37205 25.9705 2.56501C26.1376 2.20181 26.3001 1.83725 26.4722 1.47541C26.5668 1.27477 26.4904 0.992374 26.2265 0.937814V0.913574H24.9059C24.9083 0.921014 24.9076 0.929414 24.9036 0.936294C24.76 0.967734 24.6838 1.06925 24.6248 1.19269C24.4295 1.61813 24.2341 2.04333 24.0388 2.46829C22.6499 5.49949 21.2596 8.52997 19.8678 11.5599C19.848 11.6034 19.8272 11.6463 19.8033 11.6969C19.7484 11.6602 19.7476 11.5993 19.718 11.5565C19.6162 11.41 19.6412 11.2749 19.7146 11.1149C21.1474 7.99837 22.5759 4.88013 23.9999 1.76005C24.0447 1.66197 24.0909 1.56413 24.1351 1.46701C24.2399 1.23405 24.128 1.00117 23.8808 0.934214C23.8796 0.927174 23.877 0.920454 23.8728 0.914694H22.5781C22.58 0.922134 22.5791 0.930214 22.5752 0.937014C22.4324 0.966054 22.3476 1.06045 22.2899 1.18677C22.0667 1.67397 21.8431 2.16077 21.6192 2.64741L18.6763 9.05701C18.6627 9.08605 18.6488 9.11461 18.6304 9.15197C18.5711 9.08885 18.5571 9.00837 18.5169 8.94421C18.4415 8.82477 18.4536 8.71813 18.5133 8.58901C19.5911 6.25485 20.6655 3.91933 21.7364 1.58229C21.7822 1.48269 21.8165 1.38333 21.7914 1.27021C21.7624 1.12045 21.641 1.00565 21.49 0.984854C21.446 0.979654 21.402 0.977574 21.358 0.978774C21.0218 0.978774 20.6855 0.984854 20.3497 0.976054C20.132 0.970374 19.9978 1.06325 19.9102 1.25669C19.3202 2.54701 18.728 3.83653 18.1334 5.12557C17.9232 5.58341 17.713 6.04125 17.5028 6.49909C17.488 6.53173 17.4705 6.56285 17.4463 6.61085C17.3877 6.48269 17.3364 6.36765 17.2819 6.25221C17.2616 6.20797 17.2928 6.17533 17.3086 6.14229C17.4822 5.75981 17.6568 5.37813 17.832 4.99653C18.3614 3.84069 18.8906 2.68453 19.4198 1.52853C19.4931 1.36941 19.4715 1.21165 19.3622 1.09373C19.3015 1.02261 19.2131 0.981254 19.1194 0.980054C18.7232 0.980054 18.3269 0.976854 17.9305 0.980054C17.7602 0.980054 17.6499 1.08077 17.5811 1.23069L17.1856 2.09181C16.9006 2.71293 16.6152 3.33349 16.3297 3.95349C16.3154 3.98501 16.3091 4.02317 16.2692 4.04621L15.973 3.40413C15.651 2.70309 15.3265 2.00277 15.0093 1.29965C14.936 1.13445 14.8496 0.989334 14.6764 0.914694H14.5084C14.4778 0.954214 14.4269 0.960854 14.3889 0.987974C14.2648 1.07733 14.2024 1.19421 14.221 1.34869C14.2321 1.40365 14.2516 1.45645 14.2786 1.50549C14.7914 2.62525 15.3041 3.74469 15.8169 4.86373C15.8516 4.92629 15.8532 5.00205 15.8209 5.06589C15.198 6.41597 14.5772 7.76653 13.9581 9.11789C13.9488 9.14821 13.932 9.17573 13.9093 9.19805C13.879 9.15813 13.8553 9.11373 13.8392 9.06621C12.6457 6.46877 11.4528 3.87101 10.2597 1.27301C10.2412 1.22877 10.2191 1.18605 10.1937 1.14541C10.0839 0.981414 9.88467 0.925654 9.72083 1.01357C9.53043 1.11469 9.45923 1.30661 9.54171 1.50077C9.55603 1.53397 9.57187 1.56621 9.58651 1.59925L13.5231 10.1917C13.5385 10.2293 13.5561 10.266 13.5753 10.3016C13.7245 10.558 14.0589 10.5646 14.2182 10.3167C14.2467 10.2686 14.2716 10.2185 14.2934 10.1669L16.2108 6.00469C16.2255 5.96157 16.2471 5.92093 16.2752 5.88493C16.3311 5.96525 16.3561 6.05885 16.4038 6.14133C16.4425 6.20805 16.4334 6.26549 16.4019 6.33245C16.2356 6.68741 16.0723 7.04421 15.9103 7.40013C15.3243 8.67557 14.7382 9.95085 14.1522 11.2263C14.1007 11.3277 14.1001 11.4476 14.1505 11.5497C14.1816 11.6149 14.2114 11.6804 14.2409 11.7459C14.3973 12.092 14.5545 12.4378 14.7091 12.7846C14.761 12.9012 14.8394 12.9849 14.9655 13.0172C15.1681 13.0689 15.3357 12.9889 15.4273 12.7926C15.6177 12.3829 15.8056 11.9723 15.9947 11.5617C16.4586 10.5517 16.9233 9.54205 17.3888 8.53277C17.4036 8.50013 17.4088 8.45949 17.4525 8.43813C17.4916 8.52357 17.5231 8.60637 17.566 8.68253C17.6088 8.75869 17.6004 8.81909 17.566 8.89509C16.8299 10.4961 16.0947 12.0981 15.3604 13.7012C15.3421 13.741 15.3219 13.7807 15.3076 13.8221C15.2712 13.9193 15.2788 14.0275 15.3283 14.1189C15.3779 14.2102 15.4645 14.2755 15.566 14.2982C15.7436 14.3441 15.9095 14.2616 15.9944 14.0785C16.1898 13.6573 16.3834 13.2357 16.5753 12.8141C17.0364 11.8114 17.4976 10.809 17.9591 9.80677C17.9759 9.77013 17.981 9.72285 18.03 9.70125C18.0591 9.76309 18.0861 9.82093 18.1128 9.87885C18.1681 9.99861 18.2198 10.1205 18.2799 10.2377C18.3398 10.3644 18.4668 10.4459 18.6068 10.4474C18.7576 10.4528 18.8632 10.3741 18.9403 10.2492C18.9616 10.2109 18.9811 10.1713 18.9984 10.1309L22.6002 2.30565C22.6855 2.12021 22.7709 1.93517 22.8566 1.74997C22.8736 1.71333 22.8848 1.67349 22.9376 1.67669C23.0247 1.68069 23.1126 1.66909 23.2017 1.68453C23.2053 1.74789 23.1687 1.79445 23.1464 1.84309C22.0069 4.32933 20.8669 6.81493 19.7262 9.30021C19.4393 9.92533 19.1522 10.5502 18.8651 11.1752C18.817 11.2646 18.8119 11.3711 18.8512 11.4648C19.0465 11.8993 19.2426 12.3327 19.4395 12.7654C19.5064 12.9119 19.6287 12.976 19.7871 12.9772C19.9305 12.9815 20.0633 12.9 20.1241 12.7695Z" fill="#990D81"/>
<path d="M5.75168 17.4777L4.74888 20.2115L4.4328 21.0503C4.4288 21.0615 3.79848 21.0846 3.79848 21.0846C3.79616 21.0692 3.7924 21.0538 3.78744 21.0389C3.49536 20.3166 3.20296 19.5944 2.90992 18.8723C2.90152 18.8515 2.89792 18.8266 2.8704 18.8205C2.86584 18.8273 2.86184 18.8344 2.85816 18.8416L1.9496 21.0846H1.32696C1.33536 21.0377 1.30784 20.9998 1.2932 20.9595C1.12744 20.5126 0.96144 20.0669 0.79544 19.6222C0.56896 19.0118 0.34256 18.4021 0.11592 17.793L0.11304 17.785L0.01632 17.5275L0 17.4828C0.2652 17.4828 0.53112 17.4828 0.79624 17.4761C0.866 17.4761 0.88224 17.5127 0.90176 17.5648C1.08336 18.0426 1.26592 18.5203 1.44928 18.998C1.51816 19.176 1.58664 19.354 1.66464 19.5566C1.68696 19.506 1.70128 19.4761 1.71328 19.4467C1.96568 18.8273 2.21784 18.2085 2.4704 17.5904C2.52384 17.4601 2.4956 17.4806 2.64208 17.4781C2.8252 17.4781 3.00832 17.4781 3.19408 17.4781C3.29992 17.4781 3.30032 17.4781 3.34056 17.5777C3.58152 18.1951 3.82248 18.813 4.0632 19.431C4.07712 19.4676 4.09352 19.5042 4.11744 19.5599C4.1384 19.5109 4.15408 19.481 4.1644 19.4501L4.9036 17.59C4.94784 17.4778 4.94824 17.4778 5.06328 17.4778H5.75168V17.4777Z" fill="#990D81"/>
<path d="M14.1087 19.7658C14.1087 19.0262 14.1087 18.2865 14.1087 17.5467C14.1087 17.4405 14.1087 17.4397 14.0047 17.4393C13.785 17.4393 13.5652 17.4449 13.3455 17.4365C13.241 17.4325 13.1827 17.4639 13.1293 17.5573C12.7934 18.1433 12.4506 18.7254 12.1093 19.308C12.0883 19.3446 12.0751 19.3864 12.0301 19.4117C12.0062 19.3709 11.9855 19.3385 11.9663 19.3018C11.6367 18.7114 11.3091 18.1216 10.9843 17.5294C10.9587 17.4663 10.8943 17.4277 10.8266 17.4356C10.5866 17.4415 10.3468 17.4356 10.1068 17.4383C9.95305 17.4383 9.96713 17.42 9.96713 17.5804C9.96713 18.672 9.96713 19.7637 9.96713 20.8554C9.96713 20.9313 9.96905 21.0074 9.97017 21.0832H10.7393V18.9425C10.778 18.9505 10.7835 18.9758 10.7943 18.9953C11.1693 19.664 11.5441 20.3329 11.9186 21.002C11.9274 21.0197 11.935 21.0378 11.9413 21.0565C11.9762 21.0775 11.9903 21.0533 12.0054 21.0281L12.2439 20.6253C12.5613 20.0881 12.8792 19.5518 13.198 19.0169C13.2147 18.9746 13.2436 18.938 13.2808 18.9114V19.0089C13.2808 19.6563 13.2808 20.3034 13.2808 20.9501C13.2808 20.994 13.2829 21.0378 13.284 21.0819H14.1009C14.1114 21.0392 14.1143 20.9949 14.1093 20.9511C14.1091 20.5569 14.1089 20.1618 14.1087 19.7658Z" fill="#990D81"/>
<path d="M9.29825 20.3621C8.55833 20.3621 7.81833 20.3621 7.07833 20.3621C6.96545 20.3621 6.96465 20.3621 6.96425 20.2548C6.96425 20.0628 6.96425 19.8706 6.96425 19.6787C6.96425 19.5747 6.96425 19.5743 7.06881 19.5732H7.12857C7.59649 19.5732 8.06465 19.5732 8.53281 19.5732C8.62513 19.5732 8.62649 19.5732 8.62681 19.4827C8.62681 19.311 8.62681 19.1388 8.62681 18.9667C8.62681 18.8541 8.62681 18.864 8.51961 18.8633C8.23977 18.8616 7.95953 18.8633 7.67969 18.8633C7.47177 18.8633 7.26361 18.8633 7.05705 18.8633C6.96777 18.8633 6.96625 18.8612 6.96545 18.7692C6.96545 18.6092 6.96545 18.4492 6.96545 18.2891C6.96545 18.2063 6.96777 18.2044 7.05337 18.2044C7.32521 18.2044 7.59721 18.2044 7.86945 18.2044C8.34521 18.2044 8.82137 18.2044 9.29785 18.2044C9.38905 18.2044 9.39017 18.2044 9.39073 18.1119C9.39073 17.9436 9.39073 17.7756 9.39073 17.6079C9.39073 17.4726 9.40697 17.4797 9.26081 17.4797C8.26865 17.4797 7.27665 17.4797 6.28489 17.4797C6.10577 17.4797 6.13001 17.4599 6.13001 17.6298C6.13001 18.7816 6.13001 19.9336 6.13001 21.0858H9.44401C9.44401 20.894 9.44841 20.702 9.44841 20.5101C9.44617 20.3409 9.46369 20.364 9.29825 20.3621Z" fill="#990D81"/>
<path d="M34.3393 18.855C34.8931 18.3899 35.4467 17.9243 35.9999 17.4584V17.4346C35.6703 17.4346 35.344 17.4405 35.0161 17.4369C34.9289 17.4336 34.8437 17.4636 34.7777 17.5208C34.2754 17.9302 33.7714 18.3373 33.2656 18.7419C33.2369 18.7646 33.2153 18.8063 33.1622 18.7939V18.6968C33.1622 18.3087 33.1622 17.9204 33.1622 17.5324C33.1622 17.4412 33.1604 17.4397 33.0688 17.4393C32.8528 17.4393 32.6368 17.4393 32.4208 17.4393C32.3285 17.4393 32.3285 17.4393 32.3264 17.5312C32.3264 17.5551 32.3264 17.5793 32.3264 17.6045V20.6893C32.3264 20.7853 32.3288 20.8816 32.3264 20.9772C32.324 21.0382 32.3439 21.0613 32.4076 21.0606C32.6318 21.0573 32.8555 21.0577 33.0797 21.0606C33.1395 21.0606 33.1716 21.0461 33.164 20.9804C33.1624 20.956 33.1624 20.9316 33.164 20.9071C33.164 20.5748 33.164 20.2427 33.164 19.911C33.164 19.8743 33.1544 19.8307 33.1944 19.8011C33.3292 19.7011 33.4635 19.6004 33.5972 19.499C33.6186 19.4778 33.6543 19.4835 33.668 19.5103C33.6828 19.5293 33.698 19.5469 33.7135 19.5663C34.1019 20.0393 34.4903 20.5123 34.878 20.9856C34.9123 21.0343 34.9692 21.0619 35.0288 21.0589C35.3088 21.0549 35.5891 21.0589 35.8688 21.0562C35.8939 21.0562 35.9249 21.0716 35.9421 21.0394C35.9265 21.0026 35.9032 20.9694 35.874 20.9419C35.3568 20.3008 34.8393 19.6596 34.3214 19.0185C34.25 18.9301 34.2323 18.9448 34.3393 18.855Z" fill="#990D81"/>
<path d="M15.8678 19.566L16.3587 18.6041C16.527 18.9385 16.6815 19.2474 16.8426 19.5681L15.8678 19.566ZM18.2267 20.6282C17.747 19.6181 17.2683 18.6076 16.7906 17.597C16.746 17.5018 16.695 17.4688 16.5928 17.4754C16.4492 17.4842 16.3051 17.4842 16.1613 17.4754C16.0648 17.4698 16.0148 17.501 15.9732 17.5922C15.5859 18.4382 15.1926 19.2814 14.8011 20.1261C14.6546 20.4446 14.5081 20.7647 14.3633 21.0841H15.1555C15.2885 20.8153 15.4226 20.5477 15.5521 20.2783C15.5803 20.2202 15.6196 20.2102 15.6762 20.2106C16.0202 20.2106 16.3645 20.2106 16.7088 20.2106C16.8208 20.2106 16.933 20.2106 17.045 20.2106C17.0854 20.2061 17.1238 20.2287 17.1392 20.2663C17.2682 20.5282 17.3996 20.7886 17.5297 21.0502C17.5327 21.062 17.5339 21.0744 17.5329 21.0868H18.4214C18.439 21.0502 18.4127 21.0263 18.3997 20.9989C18.3437 20.875 18.2851 20.7508 18.2267 20.6282Z" fill="#990D81"/>
<path d="M22.5016 20.2573C22.3599 20.3229 22.2064 20.3254 22.0547 20.3306C21.8906 20.335 21.7251 20.3306 21.5625 20.3306C21.3428 20.3306 21.123 20.3306 20.9032 20.3306C20.8025 20.3306 20.801 20.3306 20.8006 20.2346C20.8006 20.0301 20.8006 19.8262 20.8006 19.6223C20.8006 19.5651 20.8193 19.546 20.8765 19.5464C21.316 19.5491 21.7556 19.5464 22.1951 19.5515C22.2914 19.5525 22.3868 19.5702 22.477 19.604C22.6206 19.6578 22.6896 19.7658 22.6968 19.9166C22.7042 20.0675 22.6467 20.1906 22.5016 20.2573ZM20.8002 18.2616C20.8002 18.1741 20.8025 18.1712 20.8837 18.1712C21.3116 18.1712 21.7396 18.1718 22.168 18.1729C22.2481 18.1719 22.3278 18.1832 22.4045 18.2062C22.5419 18.2502 22.602 18.3413 22.5996 18.4993C22.5976 18.6482 22.5338 18.7374 22.4012 18.7784C22.3044 18.804 22.2042 18.815 22.1042 18.8114C21.924 18.8131 21.744 18.8114 21.564 18.8114C21.3402 18.8114 21.116 18.8114 20.8917 18.8114C20.802 18.8114 20.8009 18.8091 20.8001 18.7169C20.7993 18.5654 20.7993 18.4136 20.8002 18.2616ZM23.1517 19.2378C23.1128 19.2116 23.0649 19.1973 23.0356 19.159C23.0386 19.1523 23.0392 19.1483 23.0418 19.1462C23.0575 19.1336 23.0733 19.1216 23.0893 19.1096C23.2931 18.9631 23.4132 18.7674 23.43 18.5161C23.4667 17.9965 23.2103 17.6111 22.7089 17.4881C22.5527 17.4528 22.3928 17.4364 22.2328 17.4393C21.5124 17.4393 20.7921 17.4393 20.0718 17.4393C19.9663 17.4393 19.9648 17.4393 19.9648 17.543C19.9648 18.6794 19.9648 19.816 19.9648 20.9526C19.9648 21.0569 19.9648 21.0569 20.07 21.0581H20.118C20.7905 21.0581 21.4628 21.0581 22.135 21.0581C22.279 21.059 22.4229 21.0514 22.5661 21.0354C23.1422 20.969 23.5729 20.5775 23.5428 19.9295C23.5377 19.6477 23.3906 19.3874 23.1517 19.2378Z" fill="#990D81"/>
<path d="M31.7263 17.4379C31.538 17.4412 31.3502 17.4379 31.1619 17.4379C31.0242 17.4379 31.0341 17.4265 31.0341 17.569C31.0341 18.209 31.0341 18.849 31.0341 19.4894C31.0341 19.5292 31.0476 19.5739 31.0083 19.6212C30.9743 19.5823 30.9465 19.548 30.9158 19.5168C30.2626 18.8511 29.6099 18.1855 28.9572 17.5199C28.9082 17.4623 28.8349 17.4312 28.7596 17.436C28.6035 17.442 28.4475 17.436 28.2915 17.4379C28.145 17.4379 28.1526 17.4221 28.1526 17.5705V20.9192C28.1526 20.9434 28.1526 20.9672 28.1526 20.9924C28.1501 21.0365 28.1669 21.0584 28.2142 21.058C28.4303 21.058 28.6463 21.058 28.8623 21.058C28.907 21.058 28.9301 21.0429 28.9287 20.9964C28.9287 20.9642 28.9287 20.9324 28.9287 20.9001C28.9287 20.2563 28.9287 19.6121 28.9287 18.9679C28.9231 18.9246 28.9263 18.8805 28.9379 18.8386C28.9789 18.8426 28.9941 18.8752 29.0155 18.8952C29.1594 19.0396 29.3023 19.1854 29.4459 19.3303C29.9909 19.8828 30.5359 20.4355 31.0809 20.9884C31.1224 21.0365 31.1843 21.0627 31.2478 21.0588C31.3943 21.054 31.544 21.0588 31.6921 21.0588C31.809 21.0588 31.809 21.0588 31.81 20.9409V17.5909C31.81 17.5669 31.8083 17.5427 31.81 17.5176C31.816 17.4563 31.7882 17.4368 31.7263 17.4379Z" fill="#990D81"/>
<path d="M25.2257 19.5382C25.2348 19.4577 25.592 18.7423 25.7019 18.5858L26.1805 19.5382H25.2257ZM27.0436 19.5015C26.7315 18.8445 26.42 18.1873 26.1088 17.5304C26.0777 17.464 26.0419 17.4344 25.9656 17.4373C25.8019 17.4432 25.636 17.4437 25.4742 17.4373C25.3939 17.4341 25.3548 17.4604 25.321 17.5336C24.796 18.6728 24.2696 19.8115 23.7412 20.9493C23.727 20.9805 23.6995 21.0094 23.7161 21.0593C23.9527 21.0593 24.1923 21.0593 24.4305 21.0593C24.4896 21.0593 24.5038 21.0192 24.5219 20.9809C24.6415 20.7413 24.764 20.5047 24.8796 20.2615C24.9019 20.2014 24.9625 20.1644 25.026 20.1724C25.462 20.1758 25.8979 20.1766 26.3337 20.1724C26.4172 20.1724 26.4612 20.1959 26.4974 20.2735C26.6096 20.5119 26.7315 20.746 26.8497 20.9816C26.8692 21.0206 26.8824 21.06 26.9409 21.0596C27.2128 21.057 27.4844 21.0596 27.7654 21.0596C27.7627 21.0184 27.7501 20.9783 27.7288 20.943C27.5 20.4618 27.2715 19.9813 27.0436 19.5015Z" fill="#990D81"/>
</svg>
